<svg width="140" height="44" version="1.1" viewBox="0 0 140 44" xmlns="http://www.w3.org/2000/svg">
 <g stroke-width="1.1428">
  <g transform="matrix(.87502 0 0 .87502 10.079 2.0764)" fill="#f00" aria-label="2.1">
   <path d="m103.55 37.198c-1.5937-0.7292-3.7552-1.0938-6.4844-1.0938-2.2292 0-4.4479 0.17187-6.6562 0.51562l-0.95312 0.14062c-0.89587 0.13541-1.4688 0.20312-1.7188 0.20312-0.75 0-1.125-0.45313-1.125-1.3594 0-0.29167 0.03646-0.71353 0.10938-1.2656 3.5313-2.3125 6.5677-5.0313 9.1094-8.1562 2.5417-3.1354 3.8125-5.7239 3.8125-7.7656 0-2.0208-1.1146-3.0312-3.3438-3.0312-2.5313 0-4.7552 1.4427-6.6719 4.3281-0.125-0.60417-0.1875-1.0938-0.1875-1.4688 0-1.25 0.84897-2.4219 2.5469-3.5156 1.6979-1.1041 3.5156-1.6562 5.4531-1.6562 1.6875 0 3.0468 0.40627 4.0781 1.2188 1.0313 0.80207 1.5469 1.8646 1.5469 3.1875 0 3.8646-4.2397 9.3176-12.719 16.359 3.5417-0.47917 6.4792-0.71875 8.8125-0.71875 1.7291 0 2.8593 0.24479 3.3906 0.73438 0.53125 0.48959 0.86458 1.6042 1 3.3438z"/>
   <path d="m109.5 33.026 1.125-0.21875c0.75-0.14583 1.2969-0.21875 1.6406-0.21875 0.90627 0 1.3594 0.47397 1.3594 1.4219 0 0.375-0.0521 0.82813-0.15625 1.3594l-0.20312 1.0625-0.71875 0.125c-1.0208 0.1875-1.6302 0.28125-1.8281 0.28125-0.7396 0-1.1094-0.3854-1.1094-1.1562 0-0.20833 0.0208-0.41146 0.0625-0.60938l0.0781-0.40625c0.0417-0.17708 0.0625-0.36458 0.0625-0.5625 0-0.42708-0.10417-0.78645-0.3125-1.0781z"/>
   <path d="m132.38 13.042-4.1562 21.359c1.1354-0.15625 2.0052-0.23438 2.6094-0.23438 1.375 0 2.2917 0.21354 2.75 0.64062 0.45833 0.41667 0.6875 1.2552 0.6875 2.5156-0.55209-0.36459-1.2969-0.54688-2.2344-0.54688-1.0313 0-2.2813 0.08854-3.75 0.26562l-2.2656 0.28125c-0.69793 0.09375-1.6563 0.23437-2.875 0.42188-0.39583 0.0625-0.78647 0.09375-1.1719 0.09375-1.1459 0-1.8125-0.97917-2-2.9375 0.54167 0.27083 1.0833 0.40625 1.625 0.40625 1.125 0 2.2604-0.13542 3.4062-0.40625l3.4531-17.406c-1.7187 0.84373-3.0781 1.2656-4.0781 1.2656-1.5 0-2.25-0.96873-2.25-2.9062v-0.4375c0.625 0.55208 1.349 0.82812 2.1719 0.82812 1.3646 0 3.6823-0.89063 6.9531-2.6719 0.13542-0.07292 0.51042-0.25 1.125-0.53125z"/>
  </g>
  <g transform="matrix(.87502 0 0 .87502 4.9735 2.0764)" fill="#000" aria-label="Τ  Ι">
   <path d="m13.698 36.712v-21.249h-8.5938v-5.5469h22.492v5.5469h-8.5938v21.249z"/>
   <path d="m81.534 36.712h-13.664v-5.0781h4.1797v-16.64h-4.1797v-5.0781h13.664v5.0781h-4.1797v16.64h4.1797z"/>
  </g>
  <g transform="matrix(.87502 0 0 .87502 4.9735 2.0764)" fill="#000" aria-label="ΑΧ">
   <path d="m24.613 36.828 6.877-20.357h5.5781l6.877 20.357h-5.2637l-1.2715-4.1562h-6.3984l-1.2715 4.1562zm11.676-7.8477-2.0781-6.7129-2.0781 6.7129z"/>
   <path d="m64.995 36.828h-5.9336l-3.9102-6.4941-3.9922 6.4941h-5.6602l6.6035-10.254-6.3438-10.104h5.9199l3.6641 6.1387 3.7598-6.1387h5.6738l-6.3848 9.8984z"/>
  </g>
 </g>
</svg>
