<svg width="210" height="44" version="1.1" viewBox="0 0 210 44" xmlns="http://www.w3.org/2000/svg">
 <g transform="matrix(1.374 0 0 1.5011 -3.3664 -9.9573)" stroke-width=".6963" fill="#ccc" aria-label="ATGC">
  <path d="m14.584 12.076-0.98399 4.3253h1.9751zm-1.2742-1.9113h2.5555l2.8529 10.569h-2.0883l-0.65127-2.6122h-2.7962l-0.63712 2.6122h-2.0883z"/>
  <path d="m23.59 20.734h-2.0883v-8.7426h-2.683v-1.8264h7.4542v1.8264h-2.683z"/>
  <path d="m32.313 18.823v-2.0175h-1.43v-1.7556h3.2564v4.8421q-0.60172 0.51677-1.3309 0.78578-0.72206 0.26192-1.5503 0.26192-2.0529 0-3.1714-1.4229-1.1185-1.43-1.1185-4.0563 0-2.6688 1.1256-4.0775 1.1326-1.4087 3.2634-1.4087 0.63712 0 1.253 0.18406 0.61588 0.17698 1.1539 0.51677v2.3148q-0.4389-0.56632-1.0123-0.84949-0.56632-0.29024-1.2459-0.29024-1.1893 0-1.7768 0.89904-0.58756 0.89196-0.58756 2.7113 0 1.7627 0.56632 2.683 0.56632 0.92028 1.6494 0.92028 0.32564 0 0.56632-0.05663 0.24069-0.06371 0.38935-0.18406z"/>
  <path d="m41.751 20.43q-0.49553 0.25485-1.0406 0.38227-0.54509 0.12742-1.1468 0.12742-2.1379 0-3.2634-1.4087-1.1256-1.4087-1.1256-4.0705 0-2.6688 1.1256-4.0775 1.1256-1.4087 3.2634-1.4087 0.60172 0 1.1539 0.12742 0.55217 0.12742 1.0335 0.38227v2.3219q-0.53801-0.49553-1.0477-0.72206-0.50261-0.23361-1.0406-0.23361-1.1468 0-1.7344 0.9132-0.58048 0.90612-0.58048 2.6971 0 1.7839 0.58048 2.6971 0.58756 0.90612 1.7344 0.90612 0.53801 0 1.0406-0.22653 0.50969-0.23361 1.0477-0.72914z"/>
 </g>
 <g transform="matrix(1.374 0 0 1.5011 -3.3664 -9.9573)" stroke-width=".6963" fill="#ccc" aria-label="ATTC">
  <path d="m14.584 24.57-0.98399 4.3253h1.9751zm-1.2742-1.9113h2.5555l2.8529 10.569h-2.0883l-0.65127-2.6122h-2.7962l-0.63712 2.6122h-2.0883z"/>
  <path d="m23.59 33.228h-2.0883v-8.7426h-2.683v-1.8264h7.4542v1.8264h-2.683z"/>
  <path d="m31.549 33.228h-2.0883v-8.7426h-2.683v-1.8264h7.4542v1.8264h-2.683z" fill="#f00"/>
  <path d="m41.751 32.924q-0.49553 0.25485-1.0406 0.38227-0.54509 0.12742-1.1468 0.12742-2.1379 0-3.2634-1.4087-1.1256-1.4087-1.1256-4.0705 0-2.6688 1.1256-4.0775 1.1256-1.4087 3.2634-1.4087 0.60172 0 1.1539 0.12742 0.55217 0.12742 1.0335 0.38227v2.3219q-0.53801-0.49553-1.0477-0.72206-0.50261-0.23361-1.0406-0.23361-1.1468 0-1.7344 0.9132-0.58048 0.90612-0.58048 2.6971 0 1.7839 0.58048 2.6971 0.58756 0.90612 1.7344 0.90612 0.53801 0 1.0406-0.22653 0.50969-0.23361 1.0477-0.72914z"/>
 </g>
 <g transform="matrix(1.0134 0 0 1.0292 9.2039 -.61376)" stroke-width=".97916" fill="#000" aria-label="TaxI">
  <path d="m66.022 34.603h-4.7996v-20.093h-6.1662v-4.1976h17.132v4.1976h-6.1662z"/>
  <path d="m85.042 26.045q-2.6682 0-3.7258 0.68333t-1.0575 2.3428q0 1.2365 0.73214 1.9686 0.73214 0.73214 1.9849 0.73214 1.8873 0 2.9286-1.4155 1.0413-1.4317 1.0413-3.9861v-0.3254zm6.638-1.8385v10.396h-4.7345v-2.0337q-0.8623 1.204-2.2127 1.8547-1.3504 0.65079-2.9774 0.65079-3.1075 0-4.8484-1.6432-1.7246-1.6432-1.7246-4.5881 0-3.1889 2.0663-4.702 2.0663-1.5294 6.394-1.5294h3.3028v-0.79722q0-1.1552-0.84603-1.7409-0.82976-0.60198-2.4567-0.60198-1.7083 0-3.319 0.43928-1.5944 0.42301-3.3353 1.3667v-4.0674q1.5782-0.65079 3.2051-0.95991t3.4492-0.30912q4.4416 0 6.2313 1.8059 1.8059 1.8059 1.8059 6.4591z"/>
  <path d="m112.34 16.381-6.1337 8.7206 6.6706 9.5015h-5.5642l-3.5793-6.1337-3.5631 6.1337h-5.5643l6.7357-9.5015-6.1988-8.7206h5.5642l3.0262 5.4341 3.0424-5.4341z"/>
  <path d="m116.57 14.543v-4.2301h14.464v4.2301h-4.8321v15.83h4.8321v4.2301h-14.464v-4.2301h4.8321v-15.83z"/>
 </g>
 <g transform="translate(5.3575 .24026)" fill="#f00" aria-label="2.1">
  <path d="m148.86 31.323h8.3134v3.4364h-12.53v-3.3307l2.1147-2.2469q3.7668-4.0047 4.573-4.9299 0.99127-1.1367 1.4274-2.009 0.43616-0.88553 0.43616-1.7446 0-1.3217-0.80623-2.0354-0.79301-0.72693-2.2601-0.72693-1.0441 0-2.3526 0.42294-1.2953 0.40972-2.7095 1.2027v-3.6346q1.4142-0.51546 2.7623-0.7798 1.3613-0.27755 2.6037-0.27755 3.1324 0 4.9167 1.4671 1.7975 1.4539 1.7975 3.9783 0 1.1631-0.3965 2.1808-0.38329 1.0177-1.3349 2.2601-0.70049 0.89875-3.8461 4.0444-1.705 1.705-2.7095 2.7227z"/>
  <path d="m161.7 29.909h4.4012v4.8506h-4.4012z"/>
  <path d="m170.89 31.323h4.3616v-12.807l-4.0576 1.0045v-3.5157l4.084-0.97805h3.7668v16.296h4.3616v3.4364h-12.516z"/>
 </g>
</svg>
